<?xml version="1.0" encoding="UTF-8"?>
<svg version="1.1" xmlns="http://www.w3.org/2000/svg" width="256" height="256">
<path d="M0 0 C1.69627327 -0.00571111 3.3925427 -0.01267822 5.08880615 -0.02079773 C9.67157413 -0.03866328 14.25414993 -0.03757314 18.8369422 -0.03185534 C22.67367354 -0.02875364 26.5103685 -0.0348669 30.34709466 -0.04089409 C39.4042791 -0.05491629 48.46136918 -0.0533975 57.51855469 -0.04199219 C66.83785203 -0.03051556 76.15686143 -0.04458426 85.47612083 -0.07138866 C93.50024331 -0.09359712 101.52427574 -0.1001714 109.54842675 -0.09431225 C114.33079498 -0.09095348 119.11297873 -0.09328544 123.89532089 -0.11056328 C128.39513072 -0.12611242 132.89451644 -0.1219892 137.39431 -0.10325813 C139.03731077 -0.09959407 140.68034353 -0.10261636 142.32331467 -0.11314392 C158.78485109 -0.21049838 172.00650849 3.68999252 184.33251953 15.09155273 C196.32307228 27.82074323 198.53754661 41.61927106 198.48657227 58.3215332 C198.49228338 60.01780647 198.49925049 61.7140759 198.50737 63.41033936 C198.52523555 67.99310733 198.5241454 72.57568313 198.51842761 77.1584754 C198.5153259 80.99520675 198.52143916 84.83190171 198.52746636 88.66862786 C198.54148856 97.72581231 198.53996977 106.78290239 198.52856445 115.84008789 C198.51708783 125.15938523 198.53115653 134.47839463 198.55796093 143.79765403 C198.58016938 151.82177651 198.58674367 159.84580894 198.58088452 167.86995995 C198.57752575 172.65232818 198.57985771 177.43451194 198.59713554 182.2168541 C198.61268469 186.71666392 198.60856146 191.21604965 198.5898304 195.7158432 C198.58616634 197.35884398 198.58918863 199.00187674 198.59971619 200.64484787 C198.69707065 217.1063843 194.79657975 230.32804169 183.39501953 242.65405273 C170.66582904 254.64460548 156.86730121 256.85907982 140.16503906 256.80810547 C138.46876579 256.81381658 136.77249636 256.82078369 135.07623291 256.8289032 C130.49346494 256.84676875 125.91088913 256.8456786 121.32809687 256.83996081 C117.49136552 256.83685911 113.65467056 256.84297236 109.81794441 256.84899956 C100.76075996 256.86302176 91.70366988 256.86150297 82.64648438 256.85009766 C73.32718704 256.83862103 64.00817764 256.85268973 54.68891823 256.87949413 C46.66479576 256.90170258 38.64076332 256.90827687 30.61661232 256.90241772 C25.83424408 256.89905895 21.05206033 256.90139091 16.26971817 256.91866875 C11.76990835 256.93421789 7.27052262 256.93009466 2.77072906 256.9113636 C1.12772829 256.90769954 -0.51530447 256.91072183 -2.1582756 256.92124939 C-18.61981203 257.01860385 -31.84146943 253.11811295 -44.16748047 241.71655273 C-56.15803322 228.98736224 -58.37250755 215.18883441 -58.3215332 198.48657227 C-58.32724431 196.790299 -58.33421143 195.09402956 -58.34233093 193.39776611 C-58.36019649 188.81499814 -58.35910634 184.23242234 -58.35338855 179.64963007 C-58.35028684 175.81289872 -58.3564001 171.97620376 -58.36242729 168.13947761 C-58.37644949 159.08229316 -58.3749307 150.02520308 -58.36352539 140.96801758 C-58.35204877 131.64872024 -58.36611746 122.32971084 -58.39292186 113.01045144 C-58.41513032 104.98632896 -58.4217046 96.96229652 -58.41584545 88.93814552 C-58.41248669 84.15577728 -58.41481865 79.37359353 -58.43209648 74.59125137 C-58.44764563 70.09144155 -58.4435224 65.59205582 -58.42479134 61.09226227 C-58.42112728 59.44926149 -58.42414956 57.80622873 -58.43467712 56.1632576 C-58.53203158 39.70172117 -54.63154068 26.48006378 -43.22998047 14.15405273 C-30.50078997 2.16349999 -16.70226215 -0.05097435 0 0 Z " fill="#01796F" transform="translate(57.91748046875,-0.404052734375)"/>
<path d="M0 0 C0.96035156 0.56976563 1.92070312 1.13953125 2.91015625 1.7265625 C3.58578613 2.10063232 4.26141602 2.47470215 4.95751953 2.86010742 C7.49643892 4.28429498 9.9831984 5.78013559 12.47265625 7.2890625 C14.43315099 8.46297933 16.39411363 9.63611499 18.35546875 10.80859375 C19.40637695 11.43846191 20.45728516 12.06833008 21.54003906 12.71728516 C26.99297847 15.96834944 32.47575908 19.16814629 37.95690918 22.37133789 C48.31353987 28.42524287 58.65150771 34.50758903 68.91015625 40.7265625 C67.46431826 45.06407646 64.19172826 46.02018922 60.34765625 48.0390625 C58.68875645 48.93500909 57.03127507 49.83358549 55.375 50.734375 C54.4866748 51.21680664 53.59834961 51.69923828 52.68310547 52.19628906 C47.87533347 54.84949516 43.1461197 57.63535017 38.41015625 60.4140625 C37.41701416 60.99269043 36.42387207 61.57131836 35.40063477 62.16748047 C30.45078486 65.05309252 25.51400673 67.95754441 20.60552979 70.91288757 C18.2446395 72.3309173 15.87600628 73.73567691 13.50610352 75.13858032 C11.81789659 76.14455311 10.14025628 77.16819125 8.46289062 78.19213867 C7.43228516 78.80033447 6.40167969 79.40853027 5.33984375 80.03515625 C4.43476074 80.57970459 3.52967773 81.12425293 2.59716797 81.68530273 C-0.80108846 83.00218113 -2.60518948 82.7030694 -6.08984375 81.7265625 C-8.52978516 80.58178711 -8.52978516 80.58178711 -10.94140625 79.12890625 C-11.86123291 78.58258545 -12.78105957 78.03626465 -13.72875977 77.47338867 C-14.71416748 76.87631104 -15.6995752 76.2792334 -16.71484375 75.6640625 C-18.86113755 74.38660574 -21.00831028 73.11062483 -23.15625 71.8359375 C-24.28305176 71.16498047 -25.40985352 70.49402344 -26.57080078 69.80273438 C-31.95486767 66.61304016 -37.40127558 63.53209726 -42.84283447 60.44192505 C-53.00620979 54.66878369 -63.12078497 48.83006788 -73.08984375 42.7265625 C-71.86758922 39.0597989 -71.03975118 38.84909743 -67.734375 37.046875 C-66.81342041 36.53713135 -65.89246582 36.0273877 -64.94360352 35.50219727 C-63.93998779 34.95748779 -62.93637207 34.41277832 -61.90234375 33.8515625 C-59.78151747 32.67764847 -57.66175015 31.50181955 -55.54296875 30.32421875 C-54.46208984 29.72496582 -53.38121094 29.12571289 -52.26757812 28.50830078 C-47.5168305 25.84458258 -42.83295179 23.07361964 -38.15234375 20.2890625 C-37.26716064 19.76707275 -36.38197754 19.24508301 -35.4699707 18.70727539 C-30.4785906 15.76065418 -25.52118968 12.76633361 -20.5859375 9.7265625 C-18.42065218 8.41393173 -16.25528935 7.10142884 -14.08984375 5.7890625 C-12.57596069 4.83785522 -12.57596069 4.83785522 -11.03149414 3.86743164 C-4.00776223 -0.35466922 -4.00776223 -0.35466922 0 0 Z " fill="#FDFEFE" transform="translate(130.08984375,45.2734375)"/>
<path d="M0 0 C7.15903317 3.45752062 14.03579764 7.26343729 20.875 11.3125 C31.47653299 17.5456722 42.1350242 23.67161327 52.82177734 29.75708008 C53.94664551 30.39798584 55.07151367 31.0388916 56.23046875 31.69921875 C57.22457764 32.26471436 58.21868652 32.83020996 59.24291992 33.4128418 C60.15275635 33.936604 61.06259277 34.46036621 62 35 C62.93392578 35.4758252 63.86785156 35.95165039 64.83007812 36.44189453 C67 38 67 38 67.56762695 39.99291992 C67.54144287 40.73131104 67.51525879 41.46970215 67.48828125 42.23046875 C67.47216797 43.03291016 67.45605469 43.83535156 67.43945312 44.66210938 C67.39755859 45.49548828 67.35566406 46.32886719 67.3125 47.1875 C67.28994141 48.03248047 67.26738281 48.87746094 67.24414062 49.74804688 C67.18524963 51.83278798 67.09556798 53.91661804 67 56 C60.20139819 52.71015055 53.66080552 49.13728851 47.1875 45.25 C45.27514058 44.11000414 43.36235626 42.97072084 41.44921875 41.83203125 C40.42489746 41.22182129 39.40057617 40.61161133 38.34521484 39.98291016 C34.68231495 37.81168895 31.00897221 35.65904066 27.33203125 33.51171875 C26.35703926 32.94201859 26.35703926 32.94201859 25.36235046 32.36080933 C22.77263483 30.84788637 20.18277181 29.33522776 17.59115601 27.82556152 C15.77856354 26.76945239 13.96730702 25.71108315 12.15625 24.65234375 C11.11275391 24.04382568 10.06925781 23.43530762 8.99414062 22.80834961 C8.00607422 22.21159424 7.01800781 21.61483887 6 21 C4.8951123 20.34942627 3.79022461 19.69885254 2.65185547 19.02856445 C0 17 0 17 -0.68115234 14.98535156 C-0.64973145 14.2940918 -0.61831055 13.60283203 -0.5859375 12.890625 C-0.56660156 12.13652344 -0.54726563 11.38242188 -0.52734375 10.60546875 C-0.45193359 9.43951172 -0.45193359 9.43951172 -0.375 8.25 C-0.34792969 7.45722656 -0.32085937 6.66445312 -0.29296875 5.84765625 C-0.22247273 3.89726634 -0.11485499 1.94828099 0 0 Z " fill="#FAFCFC" transform="translate(56,155)"/>
<path d="M0 0 C0.75330735 5.66590142 1.4409454 11.39203354 0 17 C-2.96061314 20.49070387 -6.62680784 22.04740239 -10.71484375 23.90039062 C-15.30699825 26.11011967 -19.62261974 28.83540462 -24 31.4375 C-26.06256259 32.63884933 -28.12641422 33.83798769 -30.19140625 35.03515625 C-35.12477498 37.90301968 -40.04752306 40.78831198 -44.96484375 43.68359375 C-46.30402849 44.4714491 -47.64322115 45.25929098 -48.98242188 46.04711914 C-50.95603188 47.20826778 -52.92921631 48.37011004 -54.90112305 49.53414917 C-56.73374296 50.61582781 -58.56788326 51.69488423 -60.40234375 52.7734375 C-61.45929443 53.39653809 -62.51624512 54.01963867 -63.60522461 54.66162109 C-66 56 -66 56 -67 56 C-67 50.06 -67 44.12 -67 38 C-65.28039062 37.01902344 -63.56078125 36.03804687 -61.7890625 35.02734375 C-49.5127281 28.02041942 -37.24352943 21.00162909 -25 13.9375 C-23.97084473 13.34380615 -22.94168945 12.7501123 -21.88134766 12.13842773 C-17.78770528 9.77446063 -13.69553228 7.40917802 -9.62109375 5.01220703 C-8.52925781 4.37009277 -7.43742187 3.72797852 -6.3125 3.06640625 C-4.82169922 2.18577515 -4.82169922 2.18577515 -3.30078125 1.28735352 C-1 0 -1 0 0 0 Z " fill="#FAFCFC" transform="translate(200,155)"/>
<path d="M0 0 C3.80962064 1.424206 7.24403968 3.17908883 10.76953125 5.203125 C12.4568335 6.16919678 12.4568335 6.16919678 14.17822266 7.15478516 C15.38973116 7.85304659 16.60115502 8.55145491 17.8125 9.25 C19.06288562 9.96811498 20.31337519 10.68604899 21.56396484 11.40380859 C45.21363588 24.9914584 45.21363588 24.9914584 54.37841797 30.48486328 C56.17651764 31.52407045 58.01271739 32.49922204 59.87548828 33.41748047 C66.57208329 36.87161326 66.57208329 36.87161326 67.78271484 40.06396484 C67.98612607 42.4152346 67.88329386 44.53048653 67.625 46.875 C67.55732422 48.050625 67.55732422 48.050625 67.48828125 49.25 C67.37120814 51.16999895 67.19182392 53.0860236 67 55 C58.05727647 50.71996433 49.49043263 46.0300062 40.98046875 40.953125 C33.79003116 36.66844289 26.51869074 32.52238167 19.26074219 28.35351562 C17.16378737 27.14701334 15.07209802 25.93130341 12.98632812 24.70556641 C11.02766992 23.5869279 9.03600452 22.52383415 7.01367188 21.52490234 C0.42428698 18.12644924 0.42428698 18.12644924 -0.77612305 14.93945312 C-0.98641867 12.58496181 -0.88369839 10.47318535 -0.625 8.125 C-0.57988281 7.34125 -0.53476562 6.5575 -0.48828125 5.75 C-0.37120814 3.83000105 -0.19182392 1.9139764 0 0 Z " fill="#FAFCFC" transform="translate(56,127)"/>
<path d="M0 0 C1.51044831 5.77606621 2.52142828 11.37536881 0 17 C-5.55834252 22.60822508 -13.3778462 25.74793422 -20.37988281 29.17724609 C-26.01234465 31.96714818 -31.40946125 35.17826514 -36.8392334 38.33883667 C-39.6671131 39.97966994 -42.50974042 41.59440588 -45.3515625 43.2109375 C-48.8769926 45.21716818 -52.39930293 47.22833994 -55.91308594 49.25488281 C-56.55780853 49.6258609 -57.20253113 49.99683899 -57.86679077 50.37905884 C-59.1171708 51.09880237 -60.36657674 51.82024138 -61.61489868 52.54354858 C-65.88786103 55 -65.88786103 55 -67 55 C-68.50956775 49.22730111 -69.53501218 43.61721897 -67 38 C-61.38953313 32.38670385 -53.56233749 29.21927365 -46.52099609 25.77099609 C-40.67902911 22.83259445 -35.07621386 19.49444907 -29.4375 16.1875 C-27.27016052 14.93901113 -25.10221057 13.69158132 -22.93359375 12.4453125 C-17.3013277 9.19023755 -11.7127294 5.86665993 -6.18530273 2.4362793 C-2.21132765 0 -2.21132765 0 0 0 Z " fill="#FAFCFC" transform="translate(200,127)"/>
<path d="M0 0 C3.0864782 1.23459128 5.73925482 2.31214541 8.58203125 3.890625 C9.25419678 4.2630835 9.9263623 4.63554199 10.61889648 5.01928711 C11.34278564 5.42542236 12.0666748 5.83155762 12.8125 6.25 C13.58730713 6.68256104 14.36211426 7.11512207 15.16040039 7.56079102 C23.84648049 12.43525791 32.43838176 17.47149447 41.03125 22.5078125 C47.46073198 26.27573944 53.91360493 30.00271737 60.37670898 33.71264648 C65.89110311 36.89110311 65.89110311 36.89110311 67 38 C67.07325168 40.86267567 67.09238205 43.700719 67.0625 46.5625 C67.05798828 47.36880859 67.05347656 48.17511719 67.04882812 49.00585938 C67.03700518 51.00393756 67.01906914 53.00197783 67 55 C47.67606825 44.50223211 28.55414545 33.67017076 9.60107422 22.51708984 C6.41265924 20.6574305 3.20478446 18.83130541 0 17 C0 11.39 0 5.78 0 0 Z " fill="#FAFCFC" transform="translate(56,99)"/>
<path d="M0 0 C0 5.61 0 11.22 0 17 C-1.381875 17.77601562 -2.76375 18.55203125 -4.1875 19.3515625 C-17.57140586 26.88325292 -30.86627741 34.55574341 -44.11962891 42.31445312 C-48.72191501 45.00763699 -53.32773563 47.69463796 -57.9375 50.375 C-58.7428418 50.84566895 -59.54818359 51.31633789 -60.37792969 51.80126953 C-65.88543597 55 -65.88543597 55 -67 55 C-67.35608001 52.32179134 -67.60879879 49.69064674 -67.8125 47 C-67.92142578 46.25621094 -68.03035156 45.51242188 -68.14257812 44.74609375 C-68.29566121 42.03770066 -68.13860854 40.48091936 -67 38 C-63.55754608 35.11758355 -59.78813783 33.03352896 -55.82876587 30.96447754 C-52.98633424 29.4654002 -50.22540768 27.82862193 -47.44921875 26.2109375 C-45.19646978 24.93025384 -42.94253028 23.65166245 -40.6875 22.375 C-38.24511414 20.98869797 -35.80386728 19.60040549 -33.36328125 18.2109375 C-32.75262817 17.86335388 -32.1419751 17.51577026 -31.51281738 17.15765381 C-27.29647886 14.75259856 -23.10134861 12.31345111 -18.91796875 9.8515625 C-17.81428955 9.20268066 -16.71061035 8.55379883 -15.57348633 7.88525391 C-13.47610469 6.64901385 -11.38080969 5.40922531 -9.2878418 4.16552734 C-7.88852417 3.34109131 -7.88852417 3.34109131 -6.4609375 2.5 C-5.64415527 2.0153125 -4.82737305 1.530625 -3.98583984 1.03125 C-2 0 -2 0 0 0 Z " fill="#FAFCFC" transform="translate(200,99)"/>
</svg>
